<svg width="176" height="55" viewBox="0 0 176 55" fill="none" xmlns="http://www.w3.org/2000/svg">
<g clip-path="url(#clip0)">
<path d="M75.9996 2.29999L77.4996 1.69999C80.7996 -1.34706e-05 82.7996 0.0999865 83.4996 0.199987C84.1996 0.299987 85.1996 0.999986 83.6996 3.29999C83.7996 3.29999 84.3996 2.99999 84.4996 2.99999C88.6996 0.999986 90.1996 0.299987 90.6996 0.0999865C91.1431 0.0181812 91.6012 0.0886611 91.9996 0.299987C92.2701 0.407275 92.5104 0.578897 92.6996 0.799987C93.4996 1.59999 93.6996 1.99999 91.9996 4.09999C92.0996 4.39999 90.7996 5.89999 90.7996 6.29999C93.2996 4.79999 93.3996 5.69999 93.5996 6.19999C93.8207 6.38921 93.9923 6.62948 94.0996 6.89999C94.3996 7.99999 94.2996 8.59999 92.5996 10.7C92.5996 11 91.3996 12.4 91.3996 12.7C93.2996 12.1 93.2996 12.6 93.5996 13C93.795 13.1742 93.9635 13.3764 94.0996 13.6C94.3996 14.4 94.3996 14.6 92.6996 16.7C93.3996 16.4 93.8996 17.6 93.2996 18.1C93.1996 18.2 92.4996 18.7 92.4996 18.8C93.2996 18.4 93.4996 19.4 92.9996 19.6C90.7971 20.7106 88.5258 21.6793 86.1996 22.5C84.6996 22.7 83.3996 21.3 85.0996 19.6C85.1996 19.5 84.1996 20 83.9996 20C79.1996 22.2 77.4996 22.6 76.6996 22.6H76.4996C76.3431 22.6078 76.1872 22.5751 76.0471 22.5051C75.9069 22.435 75.7872 22.3299 75.6996 22.2C75.0996 21.6 74.9996 21.5 76.4996 19.9C76.2996 19.8 77.2996 18.6 77.0996 18.5C73.2996 20.1 72.8996 19.5 72.4996 18.8C72.3042 18.6258 72.1357 18.4236 71.9996 18.2C71.6996 17.6 71.6996 16.6 73.6996 14.5L75.0996 12.5C72.8996 13.4 72.7996 12.8 72.4996 12.1C72.3002 11.8919 72.1318 11.6561 71.9996 11.4C71.6996 10.2 71.6996 9.49999 73.7996 6.89999C72.7996 7.29999 72.6996 7.09999 72.4996 7.09999C72.2869 6.98682 72.1128 6.81272 71.9996 6.59999C71.7996 5.99999 71.8996 5.59999 72.5996 3.59999C72.6996 3.49999 72.9996 2.29999 73.0996 2.19999C73.152 1.84485 73.3333 1.52146 73.6091 1.29159C73.8848 1.06172 74.2355 0.941481 74.5943 0.953852C74.9531 0.966223 75.2947 1.11033 75.5539 1.35865C75.8131 1.60697 75.9718 1.94209 75.9996 2.29999Z" fill="#1D8DCC"/>
<path d="M99.1993 4.29998C99.1953 3.73419 99.3038 3.17324 99.5185 2.64974C99.7332 2.12624 100.05 1.65062 100.45 1.25053C100.85 0.850443 101.326 0.533859 101.849 0.319176C102.373 0.104494 102.934 -0.00400524 103.499 -1.59265e-05H116.499C117.065 -0.00400524 117.626 0.104494 118.15 0.319176C118.673 0.533859 119.149 0.850443 119.549 1.25053C119.949 1.65062 120.265 2.12624 120.48 2.64974C120.695 3.17324 120.803 3.73419 120.799 4.29998V17.3C120.803 17.8658 120.695 18.4267 120.48 18.9502C120.265 19.4737 119.949 19.9493 119.549 20.3494C119.149 20.7495 118.673 21.0661 118.15 21.2808C117.626 21.4955 117.065 21.604 116.499 21.6H103.499C102.934 21.604 102.373 21.4955 101.849 21.2808C101.326 21.0661 100.85 20.7495 100.45 20.3494C100.05 19.9493 99.7332 19.4737 99.5185 18.9502C99.3038 18.4267 99.1953 17.8658 99.1993 17.3V4.29998Z" fill="#38BFC4"/>
<path d="M159 48.5C158.093 48.9313 157.105 49.1696 156.1 49.2C155.221 49.2108 154.349 49.0385 153.54 48.6942C152.731 48.3499 152.002 47.8411 151.4 47.2C150.156 45.8348 149.476 44.0474 149.5 42.2C149.447 41.2798 149.589 40.3588 149.917 39.4972C150.244 38.6356 150.75 37.8528 151.4 37.2C152.002 36.5589 152.731 36.05 153.54 35.7057C154.349 35.3614 155.221 35.1892 156.1 35.2C157.007 35.1642 157.91 35.3346 158.742 35.6984C159.573 36.0621 160.311 36.6097 160.9 37.3C162.19 38.9479 162.83 41.0115 162.7 43.1C162.643 44.2541 162.267 45.3698 161.614 46.3231C160.961 47.2764 160.056 48.0299 159 48.5ZM99.4004 48.5C98.4925 48.9313 97.5051 49.1696 96.5004 49.2C95.6211 49.2108 94.7492 49.0385 93.9401 48.6942C93.1309 48.3499 92.4023 47.8411 91.8004 47.2C90.5555 45.8348 89.8763 44.0474 89.9004 42.2C89.8475 41.2798 89.9893 40.3588 90.3167 39.4972C90.6442 38.6356 91.1497 37.8528 91.8004 37.2C92.4023 36.5589 93.1309 36.05 93.9401 35.7057C94.7492 35.3614 95.6211 35.1892 96.5004 35.2C97.4072 35.1642 98.3103 35.3346 99.1417 35.6984C99.9731 36.0621 100.711 36.6097 101.3 37.3C102.59 38.9479 103.23 41.0115 103.1 43.1C103.043 44.2541 102.667 45.3698 102.014 46.3231C101.361 47.2764 100.456 48.0299 99.4004 48.5ZM104.1 40.1C103.94 39.3324 103.67 38.5916 103.3 37.9C102.562 36.6947 101.53 35.6968 100.3 35C99.11 34.332 97.7654 33.9872 96.4004 34C95.3432 33.9708 94.2914 34.16 93.3106 34.5557C92.3298 34.9515 91.4413 35.5453 90.7004 36.3C89.2095 37.9014 88.3867 40.012 88.4004 42.2C88.3964 43.2625 88.6002 44.3156 89.0004 45.3C89.3726 46.3087 89.9517 47.2284 90.7004 48C91.4126 48.7971 92.3036 49.414 93.3004 49.8C94.3195 50.2005 95.4054 50.4041 96.5004 50.4C97.4875 50.3884 98.4664 50.2197 99.4004 49.9C100.863 49.3139 102.116 48.304 103 47V50.1H104.4V43.1C104.4 42.0925 104.299 41.0876 104.1 40.1ZM72.4004 50.1V26.6H73.8004V40.8H75.4004C76.2698 40.8034 77.1272 40.5976 77.9004 40.2C78.7804 39.5884 79.5285 38.8063 80.1004 37.9L82.7004 34.2H84.3004L81.7004 38.2C81.3004 38.8 80.9004 39.3 80.5004 39.8C80.1256 40.1624 79.7245 40.4966 79.3004 40.8C79.9322 40.8218 80.5534 40.9689 81.1278 41.2329C81.7022 41.4968 82.2185 41.8723 82.6465 42.3376C83.0745 42.8028 83.4058 43.3485 83.621 43.9429C83.8363 44.5373 83.9312 45.1686 83.9004 45.8V50H82.5004V46.3C82.5689 45.1162 82.2145 43.9466 81.5004 43C81.1114 42.6081 80.6411 42.3065 80.1227 42.1164C79.6043 41.9263 79.0505 41.8525 78.5004 41.9H74.1004V50L72.4004 50.1ZM130.4 43C130.287 40.9442 130.927 38.9176 132.2 37.3C132.782 36.6003 133.518 36.0461 134.352 35.6815C135.185 35.3169 136.092 35.152 137 35.2C137.88 35.1892 138.752 35.3614 139.561 35.7057C140.37 36.05 141.099 36.5589 141.7 37.2C142.96 38.5558 143.642 40.3495 143.6 42.2C143.636 43.1183 143.486 44.0343 143.159 44.8934C142.833 45.7525 142.337 46.5369 141.7 47.2C141.099 47.8411 140.37 48.3499 139.561 48.6942C138.752 49.0385 137.88 49.2108 137 49.2C135.99 49.218 134.991 48.977 134.1 48.5C133 48.0651 132.057 47.3066 131.396 46.3246C130.736 45.3426 130.388 44.1834 130.4 43ZM129 43.1V55H130.4V47C131.308 48.2821 132.554 49.2863 134 49.9C134.922 50.2673 135.909 50.4377 136.9 50.4C137.995 50.4041 139.081 50.2005 140.1 49.8C141.097 49.4136 141.988 48.7968 142.7 48C143.416 47.2025 143.99 46.2896 144.4 45.3C144.801 44.2808 145.005 43.195 145 42.1C145.053 41.0101 144.876 39.9213 144.48 38.9047C144.083 37.8881 143.477 36.9664 142.7 36.2C141.973 35.4268 141.087 34.8208 140.103 34.4237C139.119 34.0266 138.06 33.8479 137 33.9C135.634 33.8747 134.286 34.2202 133.1 34.9C131.871 35.5968 130.839 36.5947 130.1 37.8C129.688 38.4718 129.416 39.2202 129.3 40C129.003 41.0046 128.901 42.057 129 43.1ZM110.5 43C110.372 40.9424 111.013 38.9105 112.3 37.3C112.882 36.6003 113.618 36.0461 114.452 35.6815C115.285 35.3169 116.192 35.152 117.1 35.2C117.98 35.1892 118.852 35.3614 119.661 35.7057C120.47 36.05 121.199 36.5589 121.8 37.2C123.06 38.5558 123.742 40.3495 123.7 42.2C123.736 43.1183 123.586 44.0343 123.259 44.8934C122.933 45.7525 122.437 46.5369 121.8 47.2C121.199 47.8411 120.47 48.3499 119.661 48.6942C118.852 49.0385 117.98 49.2108 117.1 49.2C116.09 49.218 115.091 48.977 114.2 48.5C113.1 48.0651 112.157 47.3066 111.496 46.3246C110.836 45.3426 110.488 44.1834 110.5 43ZM109.2 43.1V55H110.6V47C111.484 48.2816 112.741 49.2595 114.2 49.8C115.122 50.1673 116.109 50.3377 117.1 50.3C118.195 50.3041 119.281 50.1005 120.3 49.7C121.297 49.3136 122.188 48.6968 122.9 47.9C123.616 47.1025 124.19 46.1896 124.6 45.2C125.001 44.1808 125.204 43.095 125.2 42C125.253 40.9101 125.076 39.8213 124.68 38.8047C124.283 37.7881 123.677 36.8664 122.9 36.1C122.173 35.3268 121.287 34.7208 120.303 34.3237C119.319 33.9265 118.26 33.7479 117.2 33.8C115.834 33.7747 114.486 34.1202 113.3 34.8C112.071 35.4968 111.039 36.4947 110.3 37.7C109.888 38.3718 109.616 39.1202 109.5 39.9C109.203 40.9388 109.101 42.0239 109.2 43.1ZM163.7 40C163.54 39.2324 163.27 38.4916 162.9 37.8C162.193 36.6317 161.195 35.6671 160.003 35.001C158.811 34.3348 157.466 33.9899 156.1 34C155.042 33.9615 153.987 34.1465 153.005 34.5428C152.023 34.9391 151.136 35.5378 150.4 36.3C149.651 37.0657 149.062 37.9729 148.667 38.9687C148.272 39.9645 148.08 41.0289 148.1 42.1C148.106 43.1941 148.309 44.2783 148.7 45.3C149.11 46.2896 149.685 47.2025 150.4 48C151.113 48.7968 152.004 49.4136 153 49.8C154.02 50.2005 155.105 50.4041 156.2 50.4C157.491 50.3932 158.761 50.0816 159.908 49.4908C161.055 48.8999 162.046 48.0465 162.8 47V50.1H164.2V43.1C164 42.1 163.9 41.1 163.7 40Z" fill="#38BFC4"/>
<path d="M48.6003 23.3C48.546 23.3065 48.491 23.3009 48.4391 23.2836C48.3872 23.2663 48.3398 23.2378 48.3003 23.2C47.8967 23.088 47.5437 22.8409 47.3003 22.5C46.6003 21.3 46.8003 21.2 50.3003 18.1L52.8003 16C46.3003 19.9 46.2003 19.8 45.5003 19.6C45.1245 19.4851 44.8042 19.2359 44.6003 18.9C43.9003 17.7 44.1003 17.6 47.9003 14.3L50.7003 12C46.2003 14.6 46.1003 14.6 45.5003 14.4C45.0967 14.288 44.7437 14.0409 44.5003 13.7C44.0003 12.8 43.9003 12.6 48.1003 8.19998C46.1003 9.29998 46.0003 9.29998 45.5003 9.19998C45.2928 9.16301 45.0958 9.08123 44.9231 8.96033C44.7503 8.83944 44.6061 8.68233 44.5003 8.49998C44.0003 7.99998 44.0003 7.99998 45.0003 4.39998C45.2138 3.7459 45.3809 3.07758 45.5003 2.39998C45.2003 2.49998 44.5003 1.39998 45.7003 0.999976C46.6003 0.599976 47.7003 -0.200024 48.5003 1.09998C48.8003 1.69998 48.9003 1.69998 48.1003 4.69998L50.0003 3.49998C55.8003 0.0999756 55.8003 0.0999757 56.5003 0.299976C56.9039 0.411985 57.2569 0.659072 57.5003 0.999976C58.1003 1.99998 58.1003 1.99998 53.9003 6.59998L54.9003 5.99998C65.0003 -2.43187e-05 65.0003 -2.43187e-05 65.8003 0.299976C66.1761 0.414874 66.4964 0.664041 66.7003 0.999976C67.4003 2.19998 67.2003 2.29998 63.3003 5.59998L60.5003 7.89998C65.5003 4.99998 65.6003 4.99998 66.2003 5.19998C66.5761 5.31487 66.8964 5.56404 67.1003 5.89998C67.8003 7.09998 67.6003 7.19998 64.1003 10.2L61.7003 12.3C65.5003 10.1 65.6003 10.2 66.2003 10.3C66.5761 10.4149 66.8964 10.664 67.1003 11C67.6003 11.9 67.7003 12 64.3003 16.1C65.6003 15.4 65.7003 15.5 66.2003 15.5C66.5914 15.6166 66.9231 15.8784 67.1276 16.2315C67.3321 16.5847 67.3939 17.0027 67.3003 17.4C67.2558 17.6329 67.1484 17.8492 66.9897 18.0255C66.8311 18.2017 66.6273 18.3312 66.4003 18.4C66.1003 18.5 64.0003 19.8 62.5003 20.7C58.0003 23.4 58.0003 23.4 57.3003 23.2C56.8967 23.088 56.5437 22.8409 56.3003 22.5C55.8003 21.6 55.7003 21.5 59.2003 17.4L58.0003 18.1C50.4003 22.6 49.2003 23.3 48.6003 23.3Z" fill="#006495"/>
<path d="M40.5001 50.1V34.2H41.8001V37.3C42.3874 36.3124 43.2124 35.4873 44.2001 34.9C45.1907 34.39 46.286 34.1162 47.4001 34.1H47.8001C48.0052 34.0842 48.2111 34.1185 48.4001 34.2V35.5H48.3001C47.9649 35.4884 47.6309 35.455 47.3001 35.4C46.5803 35.3842 45.866 35.5285 45.2088 35.8225C44.5517 36.1165 43.968 36.5528 43.5001 37.1C42.4622 38.3637 41.928 39.9663 42.0001 41.6V50L40.5001 50.1ZM32.8001 34.2H34.2001V43.2C34.3118 45.1335 33.6661 47.0344 32.4001 48.5C31.8067 49.1455 31.077 49.6509 30.2641 49.9795C29.4512 50.3081 28.5754 50.4518 27.7001 50.4C26.8248 50.4518 25.9489 50.3081 25.136 49.9795C24.3231 49.6509 23.5935 49.1455 23.0001 48.5C21.7616 47.0188 21.1198 45.1291 21.2001 43.2V34.2H22.6001V43.6C22.5475 44.327 22.6446 45.0571 22.8854 45.7451C23.1262 46.4331 23.5056 47.0644 24.0001 47.6C24.4658 48.1102 25.0398 48.5097 25.6801 48.7693C26.3203 49.0288 27.0105 49.1418 27.7001 49.1C28.3857 49.1094 29.0662 48.9815 29.7017 48.7239C30.3371 48.4663 30.9146 48.0842 31.4001 47.6C31.8945 47.0644 32.2739 46.4331 32.5147 45.7451C32.7555 45.0571 32.8526 44.327 32.8001 43.6V34.2ZM3.40006 37.2C4.00194 36.5589 4.73061 36.05 5.53974 35.7057C6.34887 35.3614 7.22078 35.1892 8.10006 35.2C9.06569 35.1962 10.0208 35.4008 10.9001 35.8C11.7497 36.1994 12.4754 36.8214 13.0001 37.6L2.00006 45C1.60043 44.0856 1.39608 43.0979 1.40006 42.1C1.39979 40.2678 2.11784 38.5086 3.40006 37.2ZM14.6001 42.3C14.5574 44.1234 13.8456 45.8675 12.6001 47.2C12.0206 47.836 11.3078 48.3361 10.5126 48.6645C9.71738 48.993 8.85942 49.1417 8.00006 49.1C7.12078 49.1108 6.24887 48.9385 5.43974 48.5942C4.6306 48.2499 3.90194 47.7411 3.30006 47.1C3.0093 46.7867 2.74192 46.4524 2.50006 46.1L14.8001 37.9C14.1032 36.6704 13.1053 35.6381 11.9001 34.9C10.7144 34.2202 9.36655 33.8747 8.00006 33.9C6.92143 33.8883 5.85158 34.0949 4.85485 34.5074C3.85811 34.9198 2.95509 35.5296 2.20006 36.3C0.780221 37.9376 -0.000959498 40.0326 6.10321e-05 42.2C-0.00404988 43.295 0.199548 44.3808 0.600061 45.4C1.00931 46.4135 1.62191 47.3324 2.40006 48.1C3.14432 48.8348 4.02843 49.4129 5.00006 49.8C5.95215 50.1911 6.97077 50.3948 8.00006 50.4C9.03911 50.4053 10.0689 50.2047 11.0301 49.81C11.9912 49.4152 12.8647 48.834 13.6001 48.1C15.1224 46.5426 16.0131 44.4761 16.1001 42.3H14.6001ZM52.3001 42.1C52.2471 43.0202 52.389 43.9412 52.7164 44.8028C53.0438 45.6644 53.5494 46.4472 54.2001 47.1C54.7694 47.7139 55.4546 48.2089 56.2162 48.5565C56.9778 48.9042 57.8008 49.0975 58.6375 49.1254C59.4743 49.1533 60.3083 49.0152 61.0914 48.719C61.8745 48.4229 62.5912 47.9746 63.2001 47.4L63.5001 47.1C64.7085 45.7342 65.3756 43.9736 65.3756 42.15C65.3756 40.3264 64.7085 38.5657 63.5001 37.2C62.3301 35.9587 60.7167 35.2305 59.0119 35.1743C57.3071 35.1181 55.6492 35.7384 54.4001 36.9L54.1001 37.2C53.4911 37.8573 53.0185 38.6287 52.7096 39.4698C52.4006 40.3109 52.2614 41.2048 52.3001 42.1ZM50.8001 42.2C50.7959 41.105 50.9995 40.0191 51.4001 39C51.8093 37.9865 52.4219 37.0676 53.2001 36.3C53.9125 35.5031 54.8035 34.8863 55.8001 34.5C57.7547 33.6998 59.9455 33.6998 61.9001 34.5C62.8967 34.8863 63.7876 35.5031 64.5001 36.3C65.2459 37.0937 65.8543 38.0062 66.3001 39C67.1004 41.0583 67.1004 43.3417 66.3001 45.4C65.9141 46.3968 65.2972 47.2878 64.5001 48C63.7876 48.7968 62.8967 49.4136 61.9001 49.8C59.9108 50.5998 57.6893 50.5998 55.7001 49.8C54.7035 49.4136 53.8125 48.7968 53.1001 48C52.3219 47.2324 51.7093 46.3135 51.3001 45.3C51.1001 44.3 50.9001 43.2 50.8001 42.2Z" fill="#006495"/>
<path d="M170.99 27.5455C171.02 28.1291 170.926 28.7124 170.715 29.2589C170.503 29.8054 170.179 30.3033 169.762 30.7213C169.344 31.1394 168.843 31.4687 168.29 31.6884C167.737 31.9082 167.143 32.0138 166.546 31.9986C165.326 31.9846 164.162 31.4972 163.309 30.6435C162.457 29.7899 161.986 28.64 162 27.4467C162.015 26.2535 162.513 25.1147 163.385 24.2808C164.258 23.4469 165.434 22.9863 166.653 23.0003C167.249 23.0008 167.839 23.121 168.385 23.3535C168.932 23.5861 169.423 23.926 169.83 24.3522C170.237 24.7783 170.549 25.2817 170.749 25.831C170.948 26.3804 171.03 26.9639 170.99 27.5455V27.5455ZM170.343 27.5455C170.357 26.8096 170.146 26.0864 169.737 25.4684C169.328 24.8504 168.74 24.3657 168.048 24.0762C167.357 23.7866 166.592 23.7054 165.853 23.8428C165.114 23.9803 164.433 24.3302 163.898 24.8479C163.363 25.3656 162.998 26.0275 162.85 26.7491C162.701 27.4707 162.776 28.2193 163.064 28.8991C163.353 29.579 163.842 30.1593 164.469 30.5658C165.097 30.9724 165.834 31.1869 166.586 31.1817C167.572 31.1682 168.515 30.7798 169.213 30.0987C169.912 29.4175 170.313 28.4972 170.33 27.5324L170.343 27.5455Z" fill="#006495"/>
<path d="M165.04 27.4787C165.04 26.7963 165.04 26.0861 165.04 25.4176C165.04 25.1391 165.134 25.0138 165.416 25.0138C166.168 24.9785 166.922 25.0111 167.669 25.1112C168.433 25.2644 168.782 25.7936 168.661 26.7406C168.661 26.9157 168.616 27.0876 168.531 27.2391C168.446 27.3906 168.325 27.5164 168.179 27.604C167.951 27.7293 167.91 27.9104 168.085 28.1471C168.356 28.5127 168.606 28.894 168.836 29.289C168.943 29.484 169.144 29.7347 168.836 29.9436C168.691 30.0039 168.533 30.0162 168.381 29.9788C168.23 29.9414 168.094 29.8561 167.991 29.7347C167.723 29.303 167.454 28.8713 167.173 28.4395C167.037 28.245 166.848 28.0963 166.631 28.0121C166.414 27.9279 166.178 27.9119 165.952 27.9661C165.751 27.9661 165.738 28.1471 165.738 28.3003C165.738 28.732 165.738 29.1637 165.738 29.5954C165.738 30.0271 165.63 29.9714 165.376 29.9714C165.121 29.9714 165 29.8879 165 29.6093C165.04 28.8991 165.04 28.1889 165.04 27.4787ZM166.676 25.9468C165.711 25.9468 165.671 25.9468 165.764 26.8241V26.9077C165.764 27.0191 165.764 27.1027 165.939 27.1027C166.485 27.1871 167.042 27.1296 167.562 26.9355C167.654 26.8914 167.73 26.8173 167.779 26.7244C167.827 26.6315 167.845 26.5247 167.83 26.4203C167.83 26.2114 167.656 26.0861 167.454 26.0304C167.201 25.9588 166.938 25.9306 166.676 25.9468V25.9468Z" fill="#006495"/>
</g>
<defs>
<clipPath id="clip0">
<rect width="176" height="55" fill="white"/>
</clipPath>
</defs>
</svg>
