<svg width="15" height="16" viewBox="0 0 15 16" fill="none" xmlns="http://www.w3.org/2000/svg">
<path d="M2.5 0.648193C1.11929 0.648193 0 1.76748 0 3.14819V5.14819C0 10.9472 4.70101 15.6482 10.5 15.6482H12.5C13.8807 15.6482 15 14.5289 15 13.1482V11.7662C15 11.1981 14.679 10.6787 14.1708 10.4246L11.7549 9.21662C10.9384 8.80839 9.94971 9.21794 9.66105 10.0839L9.36328 10.9772C9.25014 11.3166 8.90197 11.5187 8.55114 11.4485C6.35528 11.0093 4.63885 9.29291 4.19967 7.09705C4.12951 6.74622 4.33156 6.39805 4.67097 6.28492L5.7796 5.91537C6.52319 5.66751 6.95058 4.88895 6.76048 4.12854L6.17444 1.78439C6.0075 1.11664 5.40752 0.648193 4.71922 0.648193H2.5Z" fill="#8A8A8E"/>
</svg>
