<svg width="15" height="16" viewBox="0 0 15 16" fill="none" xmlns="http://www.w3.org/2000/svg">
<path d="M2.50278 2.55513C3.82927 1.36916 5.58034 0.648193 7.5 0.648193C10.3784 0.648193 12.8778 2.26917 14.1351 4.64819H7.5C6.0459 4.64819 4.79892 5.53493 4.27029 6.79715L2.50278 2.55513Z" fill="#8A8A8E"/>
<path d="M1.74548 3.33762C0.655856 4.63971 0 6.31726 0 8.14819C0 11.4723 2.16179 14.2909 5.15637 15.2748L7.96726 11.6173C7.8144 11.6377 7.65843 11.6482 7.5 11.6482C5.83646 11.6482 4.44398 10.4876 4.08809 8.93196C4.06875 8.90383 4.052 8.87327 4.03835 8.84049L1.74548 3.33762Z" fill="#8A8A8E"/>
<path d="M6.2149 15.5386C6.63245 15.6106 7.06184 15.6482 7.5 15.6482C11.6426 15.6482 15 12.2908 15 8.14819C15 7.26968 14.849 6.42647 14.5715 5.64311C14.5482 5.64646 14.5243 5.64819 14.5 5.64819H9.94949C10.5978 6.28345 11 7.16885 11 8.14819C11 9.0714 10.6426 9.91112 10.0585 10.5365C10.0546 10.542 10.0506 10.5475 10.0465 10.5529L6.2149 15.5386Z" fill="#8A8A8E"/>
<path d="M5 8.14819C5 6.76748 6.11929 5.64819 7.5 5.64819C8.88071 5.64819 10 6.76748 10 8.14819C10 9.52891 8.88071 10.6482 7.5 10.6482C6.11929 10.6482 5 9.52891 5 8.14819Z" fill="#8A8A8E"/>
</svg>
