<svg width="31" height="22" viewBox="0 0 31 22" fill="none" xmlns="http://www.w3.org/2000/svg">
<path fill-rule="evenodd" clip-rule="evenodd" d="M0.1875 11.1482C0.1875 10.8474 0.302734 10.5589 0.507852 10.3462C0.71297 10.1335 0.991169 10.014 1.28125 10.014H27.0784L20.1944 2.87722C19.989 2.66424 19.8736 2.37537 19.8736 2.07417C19.8736 1.77296 19.989 1.4841 20.1944 1.27111C20.3998 1.05813 20.6783 0.938477 20.9688 0.938477C21.2592 0.938477 21.5377 1.05813 21.7431 1.27111L30.4931 10.3452C30.595 10.4505 30.6758 10.5757 30.7309 10.7135C30.7861 10.8513 30.8145 10.999 30.8145 11.1482C30.8145 11.2974 30.7861 11.4452 30.7309 11.583C30.6758 11.7208 30.595 11.8459 30.4931 11.9513L21.7431 21.0254C21.5377 21.2384 21.2592 21.358 20.9688 21.358C20.6783 21.358 20.3998 21.2384 20.1944 21.0254C19.989 20.8124 19.8736 20.5235 19.8736 20.2223C19.8736 19.9211 19.989 19.6322 20.1944 19.4193L27.0784 12.2825H1.28125C0.991169 12.2825 0.71297 12.163 0.507852 11.9503C0.302734 11.7376 0.1875 11.4491 0.1875 11.1482Z" fill="white"/>
</svg>
