<svg width="15" height="8" viewBox="0 0 15 8" fill="none" xmlns="http://www.w3.org/2000/svg">
<path fill-rule="evenodd" clip-rule="evenodd" d="M0.0606557 0.557231C0.129193 0.320756 0.249044 0.141031 0.393929 0.0574608C0.538815 -0.0261094 0.69691 -0.0067043 0.833552 0.111422L7.49776 5.88294L14.1608 0.109423C14.2286 0.0494109 14.3026 0.0132456 14.3785 0.00301223C14.4544 -0.00722117 14.5307 0.00867976 14.603 0.0497985C14.6753 0.0909172 14.7422 0.15644 14.7999 0.24259C14.8575 0.328739 14.9048 0.433812 14.9389 0.55175C14.973 0.669687 14.9933 0.798156 14.9986 0.92975C15.0039 1.06135 14.9941 1.19346 14.9699 1.31849C14.9456 1.44351 14.9072 1.55896 14.8571 1.65819C14.8069 1.75743 14.7459 1.83847 14.6776 1.89666L7.75616 7.89408C7.67595 7.96373 7.58748 8 7.49776 8C7.40805 8 7.31957 7.96373 7.23936 7.89408L0.317903 1.89666C0.181449 1.77788 0.0777408 1.57018 0.0295177 1.31909C-0.0187053 1.06801 -0.00750755 0.79403 0.0606557 0.557231Z" fill="#8A8A8E"/>
</svg>
