<svg width="15" height="16" viewBox="0 0 15 16" fill="none" xmlns="http://www.w3.org/2000/svg">
<path d="M11 11.6482H10V10.6482H11V11.6482Z" fill="#8A8A8E"/>
<path d="M8 11.6482H9V10.6482H8V11.6482Z" fill="#8A8A8E"/>
<path d="M13 11.6482H12V10.6482H13V11.6482Z" fill="#8A8A8E"/>
<path fill-rule="evenodd" clip-rule="evenodd" d="M3 6.64819V4.14819C3 2.2152 4.567 0.648193 6.5 0.648193C8.433 0.648193 10 2.2152 10 4.14819V6.64819H11.5C12.3284 6.64819 13 7.31977 13 8.14819V8.6982C14.1411 8.92984 15 9.93871 15 11.1482C15 12.3577 14.1411 13.3665 13 13.5982V14.1482C13 14.9766 12.3284 15.6482 11.5 15.6482H1.5C0.671573 15.6482 0 14.9766 0 14.1482V8.14819C0 7.31977 0.671573 6.64819 1.5 6.64819H3ZM4 4.14819C4 2.76748 5.11929 1.64819 6.5 1.64819C7.88071 1.64819 9 2.76748 9 4.14819V6.64819H4V4.14819ZM8.5 9.64819C7.67157 9.64819 7 10.3198 7 11.1482C7 11.9766 7.67157 12.6482 8.5 12.6482H12.5C13.3284 12.6482 14 11.9766 14 11.1482C14 10.3198 13.3284 9.64819 12.5 9.64819H8.5Z" fill="#8A8A8E"/>
</svg>
