<svg width="9" height="10" viewBox="0 0 9 10" fill="none" xmlns="http://www.w3.org/2000/svg">
<path d="M0.125 0.773193H2C3.03553 0.773193 3.875 1.61266 3.875 2.64819C3.875 3.68373 3.03553 4.52319 2 4.52319C0.964466 4.52319 0.125 3.68373 0.125 2.64819V0.773193Z" fill="#8A8A8E"/>
<path d="M0.125 7.64819C0.125 6.61266 0.964466 5.77319 2 5.77319C3.03553 5.77319 3.875 6.61266 3.875 7.64819C3.875 8.68373 3.03553 9.52319 2 9.52319H0.125V7.64819Z" fill="#8A8A8E"/>
<path d="M5.125 2.64819C5.125 1.61266 5.96447 0.773193 7 0.773193H8.875V2.64819C8.875 3.68373 8.03553 4.52319 7 4.52319C5.96447 4.52319 5.125 3.68373 5.125 2.64819Z" fill="#8A8A8E"/>
<path d="M5.125 7.64819C5.125 6.61266 5.96447 5.77319 7 5.77319C8.03553 5.77319 8.875 6.61266 8.875 7.64819V9.52319H7C5.96447 9.52319 5.125 8.68373 5.125 7.64819Z" fill="#8A8A8E"/>
</svg>
