<svg width="15" height="16" viewBox="0 0 15 16" fill="none" xmlns="http://www.w3.org/2000/svg">
<path fill-rule="evenodd" clip-rule="evenodd" d="M0 8.14819C0 4.00606 3.35786 0.648193 7.5 0.648193C11.6421 0.648193 15 4.00606 15 8.14819V9.14819C15 9.64122 14.8568 10.1023 14.6095 10.4903C14.1665 11.1854 13.3875 11.6482 12.5 11.6482C11.5285 11.6482 10.6864 11.094 10.2726 10.2845C9.63256 11.1139 8.62867 11.6482 7.5 11.6482C5.567 11.6482 4 10.0812 4 8.14819C4 6.2152 5.567 4.64819 7.5 4.64819C9.433 4.64819 11 6.2152 11 8.14819V9.14819C11 9.97662 11.6716 10.6482 12.5 10.6482C13.0316 10.6482 13.4991 10.372 13.7662 9.9529C13.9142 9.72066 14 9.44522 14 9.14819V8.14819C14 4.55834 11.0899 1.64819 7.5 1.64819C3.91015 1.64819 1 4.55834 1 8.14819C1 11.738 3.91015 14.6482 7.5 14.6482C8.88168 14.6482 10.1613 14.2177 11.214 13.4834L11.786 14.3036C10.571 15.1511 9.09282 15.6482 7.5 15.6482C3.35786 15.6482 0 12.2903 0 8.14819ZM10 8.14819C10 6.76748 8.88071 5.64819 7.5 5.64819C6.11929 5.64819 5 6.76748 5 8.14819C5 9.5289 6.11929 10.6482 7.5 10.6482C8.88071 10.6482 10 9.5289 10 8.14819Z" fill="#8A8A8E"/>
</svg>
