<svg width="26" height="23" viewBox="0 0 26 23" fill="none" xmlns="http://www.w3.org/2000/svg">
<path d="M25.4583 9.08333V12.8333H0V9.08333H25.4583ZM2.875 22.75V0H10.5833C12.75 0 14.5278 0.194444 15.9167 0.583333C17.3056 0.972222 18.3333 1.58333 19 2.41667C19.6944 3.25 20.0417 4.34722 20.0417 5.70833C20.0417 6.625 19.875 7.44444 19.5417 8.16667C19.2361 8.86111 18.8056 9.41667 18.25 9.83333C17.6944 10.25 17.0694 10.5278 16.375 10.6667V10.8333C17.0972 10.9722 17.7778 11.2361 18.4167 11.625C19.0556 11.9861 19.5694 12.5278 19.9583 13.25C20.375 13.9444 20.5833 14.9028 20.5833 16.125C20.5833 18.2083 19.8056 19.8333 18.25 21C16.6944 22.1667 14.5556 22.75 11.8333 22.75H2.875ZM11.25 18.4167C12.5833 18.4167 13.5139 18.1667 14.0417 17.6667C14.5694 17.1389 14.8333 16.4583 14.8333 15.625C14.8333 14.9028 14.5694 14.2778 14.0417 13.75C13.5139 13.2222 12.5556 12.9583 11.1667 12.9583H8.5V18.4167H11.25ZM10.9583 8.875C12.2361 8.875 13.1111 8.66667 13.5833 8.25C14.0833 7.80556 14.3333 7.20833 14.3333 6.45833C14.3333 5.68055 14.0417 5.125 13.4583 4.79167C12.875 4.43055 11.9722 4.25 10.75 4.25H8.5V8.875H10.9583Z" fill="black"/>
</svg>
