<svg width="15" height="11" viewBox="0 0 15 11" fill="none" xmlns="http://www.w3.org/2000/svg">
<path d="M9.84381 5.15625C9.84381 5.77785 9.59688 6.37399 9.15734 6.81353C8.7178 7.25307 8.12166 7.5 7.50006 7.5C6.87846 7.5 6.28232 7.25307 5.84278 6.81353C5.40324 6.37399 5.15631 5.77785 5.15631 5.15625C5.15631 4.53465 5.40324 3.93851 5.84278 3.49897C6.28232 3.05943 6.87846 2.8125 7.50006 2.8125C8.12166 2.8125 8.7178 3.05943 9.15734 3.49897C9.59688 3.93851 9.84381 4.53465 9.84381 5.15625Z" fill="#8A8A8E"/>
<path d="M6.10352e-05 5.15625C6.10352e-05 5.15625 2.81256 0 7.50006 0C12.1876 0 15.0001 5.15625 15.0001 5.15625C15.0001 5.15625 12.1876 10.3125 7.50006 10.3125C2.81256 10.3125 6.10352e-05 5.15625 6.10352e-05 5.15625ZM7.50006 8.4375C8.3703 8.4375 9.2049 8.0918 9.82026 7.47644C10.4356 6.86109 10.7813 6.02649 10.7813 5.15625C10.7813 4.28601 10.4356 3.45141 9.82026 2.83606C9.2049 2.2207 8.3703 1.875 7.50006 1.875C6.62982 1.875 5.79522 2.2207 5.17987 2.83606C4.56451 3.45141 4.21881 4.28601 4.21881 5.15625C4.21881 6.02649 4.56451 6.86109 5.17987 7.47644C5.79522 8.0918 6.62982 8.4375 7.50006 8.4375Z" fill="#8A8A8E"/>
</svg>
