<svg width="15" height="16" viewBox="0 0 15 16" fill="none" xmlns="http://www.w3.org/2000/svg">
<path fill-rule="evenodd" clip-rule="evenodd" d="M7.00001 4.64819C7.00001 2.43905 8.79087 0.648193 11 0.648193C13.2091 0.648193 15 2.43905 15 4.64819C15 6.85733 13.2091 8.64819 11 8.64819C10.0757 8.64819 9.22453 8.33465 8.54719 7.80812L5.20711 11.1482L6.85356 12.7946L6.14645 13.5017L4.50001 11.8553L3.20711 13.1482L4.85356 14.7946L4.14645 15.5017L2.50001 13.8553L0.853561 15.5017L0.146454 14.7946L7.84008 7.10102C7.31355 6.42367 7.00001 5.57255 7.00001 4.64819ZM11 1.64819C9.34315 1.64819 8.00001 2.99134 8.00001 4.64819C8.00001 6.30505 9.34315 7.64819 11 7.64819C12.6569 7.64819 14 6.30505 14 4.64819C14 2.99134 12.6569 1.64819 11 1.64819Z" fill="#8A8A8E"/>
</svg>
