<svg width="24" height="25" viewBox="0 0 24 25" fill="none" xmlns="http://www.w3.org/2000/svg">
<path fill-rule="evenodd" clip-rule="evenodd" d="M10.3166 0.845463L8.51021 2.6519C8.36381 2.79829 8.16526 2.88054 7.95822 2.88054H5.11297C3.79819 2.88054 2.73234 3.94638 2.73234 5.26117V8.10641C2.73234 8.31345 2.6501 8.512 2.5037 8.6584L0.69727 10.4648C-0.232423 11.3945 -0.232424 12.9019 0.69727 13.8316L2.5037 15.638C2.6501 15.7844 2.73234 15.9829 2.73234 16.19V19.0352C2.73234 20.35 3.79819 21.4158 5.11297 21.4158H7.95822C8.16526 21.4158 8.36381 21.4981 8.51021 21.6445L10.3166 23.4509C11.2463 24.3806 12.7537 24.3806 13.6834 23.4509L15.4898 21.6445C15.6362 21.4981 15.8347 21.4158 16.0418 21.4158H18.887C20.2018 21.4158 21.2677 20.35 21.2677 19.0352V16.19C21.2677 15.9829 21.3499 15.7844 21.4963 15.638L23.3027 13.8316C24.2324 12.9019 24.2324 11.3945 23.3027 10.4648L21.4963 8.6584C21.3499 8.512 21.2677 8.31345 21.2677 8.10641V5.26117C21.2677 3.94638 20.2018 2.88054 18.887 2.88054H16.0418C15.8347 2.88054 15.6362 2.79829 15.4898 2.6519L13.6834 0.845464C12.7537 -0.0842297 11.2463 -0.0842304 10.3166 0.845463ZM7.43438 15.5825L15.4344 7.58252L16.5657 8.71389L8.56575 16.7139L7.43438 15.5825ZM8 8.14819V9.74819H9.6V8.14819H8ZM14.4 16.1482H16V14.5482H14.4V16.1482Z" fill="#fff"/>
</svg>
