<svg width="24" height="25" viewBox="0 0 24 25" fill="none" xmlns="http://www.w3.org/2000/svg">
<path d="M2 24.1482C2 24.1482 0 24.1482 0 22.1482C0 20.1482 2 14.1482 12 14.1482C22 14.1482 24 20.1482 24 22.1482C24 24.1482 22 24.1482 22 24.1482H2ZM12 12.1482C13.5913 12.1482 15.1174 11.5161 16.2426 10.3908C17.3679 9.26562 18 7.73949 18 6.14819C18 4.55689 17.3679 3.03077 16.2426 1.90555C15.1174 0.780335 13.5913 0.148193 12 0.148193C10.4087 0.148193 8.88258 0.780335 7.75736 1.90555C6.63214 3.03077 6 4.55689 6 6.14819C6 7.73949 6.63214 9.26562 7.75736 10.3908C8.88258 11.5161 10.4087 12.1482 12 12.1482Z" fill="#8A8A8E"/>
</svg>
